<mxfile host="app.diagrams.net" modified="2023-07-20T15:58:28.859Z" agent="Mozilla/5.0 (Windows NT 10.0; Win64; x64) AppleWebKit/537.36 (KHTML, like Gecko) Chrome/114.0.0.0 Safari/537.36" etag="QajHEfDQzDhVBODTsV9G" version="21.6.3" type="device">
  <diagram name="Page-1" id="1VWvLNXbd4LJskXnp8D3">
    <mxGraphModel dx="1050" dy="587" grid="1" gridSize="10" guides="1" tooltips="1" connect="1" arrows="1" fold="1" page="1" pageScale="1" pageWidth="850" pageHeight="1100" math="0" shadow="0">
      <root>
        <mxCell id="0" />
        <mxCell id="1" parent="0" />
        <mxCell id="fA73FXjlmr94fx4LDctf-5" value="" style="edgeStyle=orthogonalEdgeStyle;rounded=0;orthogonalLoop=1;jettySize=auto;html=1;" edge="1" parent="1" source="fA73FXjlmr94fx4LDctf-1" target="fA73FXjlmr94fx4LDctf-4">
          <mxGeometry relative="1" as="geometry" />
        </mxCell>
        <mxCell id="fA73FXjlmr94fx4LDctf-1" value="Start" style="rounded=1;whiteSpace=wrap;html=1;" vertex="1" parent="1">
          <mxGeometry x="365" y="80" width="120" height="60" as="geometry" />
        </mxCell>
        <mxCell id="fA73FXjlmr94fx4LDctf-7" value="" style="edgeStyle=orthogonalEdgeStyle;rounded=0;orthogonalLoop=1;jettySize=auto;html=1;" edge="1" parent="1" source="fA73FXjlmr94fx4LDctf-4" target="fA73FXjlmr94fx4LDctf-6">
          <mxGeometry relative="1" as="geometry" />
        </mxCell>
        <mxCell id="fA73FXjlmr94fx4LDctf-4" value="A=1.75" style="rounded=0;whiteSpace=wrap;html=1;" vertex="1" parent="1">
          <mxGeometry x="365" y="170" width="120" height="60" as="geometry" />
        </mxCell>
        <mxCell id="fA73FXjlmr94fx4LDctf-11" value="" style="edgeStyle=orthogonalEdgeStyle;rounded=0;orthogonalLoop=1;jettySize=auto;html=1;" edge="1" parent="1" source="fA73FXjlmr94fx4LDctf-6" target="fA73FXjlmr94fx4LDctf-10">
          <mxGeometry relative="1" as="geometry" />
        </mxCell>
        <mxCell id="fA73FXjlmr94fx4LDctf-6" value="B=2.18" style="whiteSpace=wrap;html=1;rounded=0;" vertex="1" parent="1">
          <mxGeometry x="365" y="260" width="120" height="60" as="geometry" />
        </mxCell>
        <mxCell id="fA73FXjlmr94fx4LDctf-13" value="" style="edgeStyle=orthogonalEdgeStyle;rounded=0;orthogonalLoop=1;jettySize=auto;html=1;" edge="1" parent="1" source="fA73FXjlmr94fx4LDctf-10" target="fA73FXjlmr94fx4LDctf-12">
          <mxGeometry relative="1" as="geometry" />
        </mxCell>
        <mxCell id="fA73FXjlmr94fx4LDctf-10" value="Multiply=A*B" style="whiteSpace=wrap;html=1;rounded=0;" vertex="1" parent="1">
          <mxGeometry x="365" y="350" width="120" height="60" as="geometry" />
        </mxCell>
        <mxCell id="fA73FXjlmr94fx4LDctf-15" value="" style="edgeStyle=orthogonalEdgeStyle;rounded=0;orthogonalLoop=1;jettySize=auto;html=1;" edge="1" parent="1" source="fA73FXjlmr94fx4LDctf-12" target="fA73FXjlmr94fx4LDctf-14">
          <mxGeometry relative="1" as="geometry" />
        </mxCell>
        <mxCell id="fA73FXjlmr94fx4LDctf-12" value="Multiply" style="shape=document;whiteSpace=wrap;html=1;boundedLbl=1;rounded=0;" vertex="1" parent="1">
          <mxGeometry x="365" y="440" width="120" height="40" as="geometry" />
        </mxCell>
        <mxCell id="fA73FXjlmr94fx4LDctf-14" value="End" style="rounded=1;whiteSpace=wrap;html=1;" vertex="1" parent="1">
          <mxGeometry x="365" y="500" width="120" height="60" as="geometry" />
        </mxCell>
      </root>
    </mxGraphModel>
  </diagram>
</mxfile>
